{"title":"Naruto Shippuden Season 6 English Dubbed","uid":8064565,"size":1820848890,"categoryP":"video","categoryS":"tv_shows","magnet":"?xt=urn:btih:fc4ceb23295287c7cdf0728c3fcb4aeffce6dcc3&amp;dn=Naruto+Shippuden+Season+6+English+Dubbed&amp;tr=udp%3A%2F%2Ftracker.openbittorrent.com%3A80&amp;tr=udp%3A%2F%2Fopen.demonii.com%3A1337&amp;tr=udp%3A%2F%2Ftracker.coppersurfer.tk%3A6969&amp;tr=udp%3A%2F%2Fexodus.desync.com%3A6969","seeders":2,"leechers":1,"uploader":"sidd32kul","files":32,"time":1359145470,"description":"Naruto Shippuden Season 6 English Dubbed\nEps 113-143\nLanguage - English\nSubtitles - No/Yes \n\nGeneral\n\nFormat                         : AVI\nFormat/Info                    : Audio Video Interleave\nFile size                      : 73.0 MiB\nOverall bit rate               : 516 Kbps\nWriting application            : MEncoder SVN-r30881(20100311-gcc4.3.3)\nWriting library                : MPlayer\n\nVideo\nID                             : 0\nFormat                         : MPEG-4 Visual\nFormat profile                 : Advanced Simple@L5\nFormat settings, BVOP          : 2\nFormat settings, QPel          : No\nFormat settings, GMC           : No warppoints\nFormat settings, Matrix        : Default (H.263)\nCodec ID                       : XVID\nCodec ID/Hint                  : XviD\nBit rate                       : 376 Kbps\nWidth                          : ~640 pixels\nHeight                         : ~362 pixels\nDisplay aspect ratio           : 16:9\nOriginal display aspect ratio  : 16:9\nFrame rate                     : 23.976 fps\nColor space                    : YUV\nChroma subsampling             : 4:2:0\nBit depth                      : 8 bits\nScan type                      : Progressive\nCompression mode               : Lossy\nBits/(Pixel*Frame)             : 0.068\nStream size                    : 53.2 MiB (73%)\nWriting library                : XviD 1.2.1 (UTC 2008-12-04)\n\nAudio\nID                             : 1\nFormat                         : MPEG Audio\nFormat version                 : Version 1\nFormat profile                 : Layer 3\nMode                           : Joint stereo\nMode extension                 : MS Stereo\nCodec ID                       : 55\nCodec ID/Hint                  : MP3\nBit rate mode                  : Constant\nBit rate                       : 128 Kbps\nChannel(s)                     : 2 channels\nSampling rate                  : ~44.1 KHz\nCompression mode               : Lossy\nDelay relative to video        : 42ms\nStream size                    : 18.1 MiB (25%)\nAlignment                      : Aligned on interleaves\nInterleave, duration           : 26 ms (0.63 video frame)\nInterleave, preload duration   : 522 ms","torrent":{"xt":"urn:btih:fc4ceb23295287c7cdf0728c3fcb4aeffce6dcc3","amp;dn":"Naruto+Shippuden+Season+6+English+Dubbed","amp;tr":["udp%3A%2F%2Ftracker.openbittorrent.com%3A80","udp%3A%2F%2Fopen.demonii.com%3A1337","udp%3A%2F%2Ftracker.coppersurfer.tk%3A6969","udp%3A%2F%2Fexodus.desync.com%3A6969"],"infoHash":"fc4ceb23295287c7cdf0728c3fcb4aeffce6dcc3","infoHashBuffer":{"type":"Buffer","data":[252,76,235,35,41,82,135,199,205,240,114,140,63,203,74,239,252,230,220,195]},"announce":[],"urlList":[]}}